# xmcd CD database file
#
# Track frame offsets:
#	150
#	16367
#	34160
#	51095
#	64730
#	81837
#	97825
#	114572
#	130230
#	143690
#	160140
#	178909
#
# Disc length: 2637 seconds
#
# Revision: 0
# Processed by: cddbd v1.5.2PL0 Copyright (c) Steve Scherf et al.
# Submitted via: CDex 1.70beta2
#
DISCID=9b0a4b0c
DTITLE=Crashdiet - Rest In Sleaze
DYEAR=2005
DGENRE=Hair Metal
TTITLE0=Knokk 'Em Down
TTITLE1=Riot In Everyone
TTITLE2=Queen Obscene - 69 Shots
TTITLE3=Breakin' The Chainz
TTITLE4=Needle In Your Eye
TTITLE5=Tikket
TTITLE6=Out Of Line
TTITLE7=It's A Miracle
TTITLE8=Straight Outta Hell
TTITLE9=Back On Trakk
TTITLE10=Tomorrow
TTITLE11=Riot In Everyone (Demo)
EXTD=YEAR: 2005
EXTT0=
EXTT1=
EXTT2=
EXTT3=
EXTT4=
EXTT5=
EXTT6=
EXTT7=
EXTT8=
EXTT9=
EXTT10=
EXTT11=
PLAYORDER=
